<?xml version="1.0" encoding="utf-8"?>
<!-- Generator: Adobe Illustrator 19.2.1, SVG Export Plug-In . SVG Version: 6.00 Build 0)  -->
<svg version="1.1" id="Layer_1" xmlns="http://www.w3.org/2000/svg" xmlns:xlink="http://www.w3.org/1999/xlink" x="0px" y="0px"
	 viewBox="0 0 2000 2000" style="enable-background:new 0 0 2000 2000;" xml:space="preserve">
<style type="text/css">
	.st0{fill:#F04923;}
</style>
<g>
	<g>
		<path class="st0" d="M1558,984.3c0,331.6-273.1,521.4-556.5,521.4c-283.4,0-556.5-189.9-556.5-521.4
			c0-311.1,249.8-521.4,556.5-521.4C1308.2,462.9,1558,673.2,1558,984.3z M1226.4,984.3c0-166.5,0-516.3-224.9-516.3
			c-224.9,0-224.9,349.8-224.9,516.3c0,170.9,0,516.3,224.9,516.3C1226.4,1500.6,1226.4,1155.2,1226.4,984.3z"/>
	</g>
	<g>
		<g>
			<g>
				<path class="st0" d="M1619.5,1644.2c-33.6,15.9-62,21.4-73.3,23.2c-41.9,7-73.4,1.9-115.3-4.9c-24.2-3.9-57.7-10.9-96.9-24
					c0,0,72.1-30.7,165.1-38c93-7.4,207.7-16.3,248-75.9c-6.2,11.4-15.6,26.9-29,43.5C1710.3,1577.5,1677.3,1616.8,1619.5,1644.2z"
					/>
				<path class="st0" d="M1560.4,1404.3c0,0-47.7,85.3-65.7,124.9c-19.5,43-67.1,68.7-127.9,88.5
					C1386.3,1537.5,1527,1416.6,1560.4,1404.3z"/>
			</g>
			<g>
				<path class="st0" d="M1786.7,1469.8c-27.5,26-53,40.3-63.2,45.7c-37.9,20.1-69.4,25.4-111.3,32.4c-24.2,4-58.1,8.2-99.2,8.4
					c0,0,59.9-52.4,146.4-89.3c86.5-36.9,193.2-82.4,214.5-152.1c-2.6,12.9-7.1,30.6-15.2,50.8
					C1854.1,1377.1,1833.9,1425.2,1786.7,1469.8z"/>
				<path class="st0" d="M1661.5,1260.3c0,0-21,96.6-26.7,140.1c-6.2,47.3-44.3,87-96.5,125.5
					C1533.9,1443.2,1633.2,1282.8,1661.5,1260.3z"/>
			</g>
			<g>
				<path class="st0" d="M1901.2,1241c-18.2,33.9-38.1,56.1-46.1,64.6c-29.9,31.9-58.1,47.5-95.8,68.2c-21.7,12-52.6,27.4-91.6,41.4
					c0,0,41-69.8,111.9-134c70.9-64.2,158.4-143.2,157.6-216.6c1.4,13.1,2.5,31.4,0.9,53.2C1937.2,1130.4,1932.5,1182.8,1901.2,1241
					z"/>
				<path class="st0" d="M1719.6,1084.6c0,0,9.1,98.6,16.8,141.9c8.3,46.9-15.8,97.4-53.8,151.5
					C1653.5,1301,1699.5,1115.4,1719.6,1084.6z"/>
			</g>
			<g>
				<path class="st0" d="M1940.5,990.4c-6.9,38.3-19,66.1-23.9,77c-18.6,40.4-40.6,64.8-69.8,97.3c-16.9,18.8-41.4,43.9-74,70.5
					c0,0,17.5-80.1,65-165.1c47.5-85,106.2-189.7,83.1-258.9c5.3,11.9,11.9,28.9,17,50.1C1940.8,873.4,1952.4,924.6,1940.5,990.4z"
					/>
				<path class="st0" d="M1720.9,904.5c0,0,38.7,90.2,59.2,128.5c22.2,41.6,14.8,97.6-4.7,161.7
					C1724.4,1131.9,1711.3,940.5,1720.9,904.5z"/>
			</g>
			<g>
				<path class="st0" d="M1903,736.5c4.4,38.7,0.9,69.1-0.7,81c-6.1,44.5-20,74.8-38.6,115.2c-10.7,23.3-26.9,55.2-50.3,91
					c0,0-6.3-82,14.6-178.3c20.9-96.3,46.8-215,4.9-273.4c8.5,9.6,19.7,23.7,30.6,42.2C1869.8,625,1895.4,670,1903,736.5z"/>
				<path class="st0" d="M1669.2,725.3c0,0,62.8,73.5,93.2,103.4c33,32.5,42.1,88.2,41.9,155.6
					C1737.7,940.9,1670.3,762.8,1669.2,725.3z"/>
			</g>
			<g>
				<path class="st0" d="M1791.4,506.1c15.8,35.2,21.6,65.2,23.7,77.1c7.6,44.2,3.5,77.7-2,122.2c-3.1,25.7-8.9,61.4-20.4,103.2
					c0,0-30.6-75.6-39.7-173.9c-9.1-98.3-20.3-219.5-77.5-260.8c10.9,6.3,25.8,15.8,41.7,29.7
					C1726.3,411.6,1764.2,445.6,1791.4,506.1z"/>
				<path class="st0" d="M1566.3,574.3c0,0,81.6,48.5,119.5,66.6c41.1,19.6,66.4,69.5,86.5,133.4
					C1696.1,755.6,1578.7,609.4,1566.3,574.3z"/>
			</g>
			<path class="st0" d="M1622.8,327c25.5,28.1,39.9,54.6,45.4,65.2c20.3,39.4,26.4,72.5,34.5,116.6c4.7,25.5,9.8,61.2,11.4,104.7
				c0,0-51.6-61.5-89.5-151.8c-37.9-90.3-84.6-201.6-151.2-221.6c12.2,2.3,29.2,6.4,48.4,14.3C1532.9,259,1579,278.7,1622.8,327z"/>
			<path class="st0" d="M1429.5,466.9c0,0,91.9,18.8,133.2,23.3c44.8,4.9,83.7,43.7,121.8,97.7
				C1606.7,595.5,1451.7,496.1,1429.5,466.9z"/>
			<path class="st0" d="M1411.5,219.2c32.4,18.6,53.7,39.2,62,47.6c30.7,31,46,60.6,66.3,100c11.8,22.8,26.9,55.2,40.9,96.1
				c0,0-66.8-42-128.8-115.8c-62-73.8-138.4-164.8-207.6-162.5c12.3-1.7,29.6-3.3,50.2-2C1306.3,183.3,1355.9,187.2,1411.5,219.2z"
				/>
			<path class="st0" d="M1267.4,414.7c0,0,92.9-11.7,133.6-20.6c44.1-9.7,92.3,14.8,144.1,53.9
				C1473.1,480.2,1297,435.3,1267.4,414.7z"/>
			<path class="st0" d="M1270,216.5c39.7,22.9,64.4,48.3,90.6,75.7c17.4,18.2,40.7,44.7,65.2,79.7c0,0-75.3-20-154.7-71.9
				c-79.4-51.9-153.2-132.4-250.3-127.4c-7.3,0.4,28.1-6,76.6-3.3c22.6,1.3,50.7,3,86.5,12.5C1201,186.4,1233,195.1,1270,216.5z"/>
			<path class="st0" d="M1597.4,1681c-7.4,9.3-18.2,21.3-32.5,33.6c-10.1,8.6-43.6,35.8-94.3,49.8c-16.4,4.5-68.8,18.2-128.9,0
				c-53.1-16.1-103.2-53.2-148.2-89c-13.9-11.1-26-18.6-38.9-23.8c-2-0.8-4.3-1.6-6.9-2.4c-4.9-1.5-12.7-3.7-22.4-5.5
				c-20.6-3.7-39.8-3.4-56.5-1.4c98.6,46.6,139.6,131.9,262,153.8c25,4.5,45.6,5,57.3,4.8c-83.4,37.3-139.6,31.9-176.1,19.1
				c-86.3-30.2-120.4-121.6-207.9-159.9c-87.4,38.3-121.5,129.7-207.9,159.9c-36.5,12.8-92.6,18.2-176.1-19.1
				c11.7,0.1,32.3-0.4,57.3-4.8c122.4-22,163.5-107.2,262.1-153.8c-16.7-2-35.8-2.3-56.5,1.4c-9.7,1.7-17.5,3.9-22.4,5.5
				c-2.6,0.8-4.9,1.7-6.9,2.4c-12.9,5.2-25,12.7-38.9,23.8c-45,35.8-95.1,72.9-148.2,89c-60.1,18.2-112.4,4.5-128.9,0
				c-50.7-13.9-84.2-41.2-94.3-49.8c-14.4-12.3-25.1-24.3-32.5-33.6c17.2,12.2,44.7,28.2,80.8,34.2c26,4.4,46.8,1.5,67.9-1.3
				c45.3-6.1,78.5-19.3,86.8-22.5c52.8-20.8,105.9-46.5,134.3-57.6c49.1-19.2,91.9-21,114.5-22.1c11.9-0.6,58.3-2.5,108.8,8.7
				c50.5-11.2,96.9-9.3,108.8-8.7c22.6,1.2,65.4,2.9,114.5,22.1c28.4,11.1,81.5,36.8,134.3,57.6c8.3,3.3,41.5,16.4,86.8,22.5
				c21,2.9,41.9,5.7,67.9,1.3C1552.8,1709.1,1580.3,1693.2,1597.4,1681z"/>
		</g>
		<g>
			<g>
				<path class="st0" d="M383.5,1644.2c33.6,15.9,62,21.4,73.3,23.2c41.9,7,73.4,1.9,115.3-4.9c24.2-3.9,57.7-10.9,96.9-24
					c0,0-72.1-30.7-165.1-38c-93-7.4-207.7-16.3-248-75.9c6.2,11.4,15.6,26.9,29,43.5C292.7,1577.5,325.7,1616.8,383.5,1644.2z"/>
				<path class="st0" d="M442.6,1404.3c0,0,47.7,85.3,65.7,124.9c19.5,43,67.1,68.7,127.9,88.5
					C616.7,1537.5,476,1416.6,442.6,1404.3z"/>
			</g>
			<g>
				<path class="st0" d="M216.3,1469.8c27.5,26,53,40.3,63.2,45.7c37.9,20.1,69.4,25.4,111.3,32.4c24.2,4,58.1,8.2,99.2,8.4
					c0,0-59.9-52.4-146.4-89.3c-86.5-36.9-193.2-82.4-214.5-152.1c2.6,12.9,7.1,30.6,15.2,50.8
					C148.9,1377.1,169.1,1425.2,216.3,1469.8z"/>
				<path class="st0" d="M341.4,1260.3c0,0,21,96.6,26.7,140.1c6.2,47.3,44.3,87,96.5,125.5C469.1,1443.2,369.8,1282.8,341.4,1260.3
					z"/>
			</g>
			<g>
				<path class="st0" d="M101.8,1241c18.2,33.9,38.1,56.1,46.1,64.6c29.9,31.9,58.1,47.5,95.8,68.2c21.7,12,52.6,27.4,91.6,41.4
					c0,0-41-69.8-111.9-134C152.4,1217,64.9,1138,65.7,1064.7c-1.4,13.1-2.5,31.4-0.9,53.2C65.8,1130.4,70.5,1182.8,101.8,1241z"/>
				<path class="st0" d="M283.4,1084.6c0,0-9.1,98.6-16.8,141.9c-8.3,46.9,15.8,97.4,53.8,151.5
					C349.4,1301,303.5,1115.4,283.4,1084.6z"/>
			</g>
			<g>
				<path class="st0" d="M62.5,990.4c6.9,38.3,19,66.1,23.9,77c18.6,40.4,40.6,64.8,69.8,97.3c16.9,18.8,41.4,43.9,74,70.5
					c0,0-17.5-80.1-65-165.1C117.7,985,59,880.3,82.1,811.2c-5.3,11.9-11.9,28.9-17,50.1C62.2,873.4,50.6,924.6,62.5,990.4z"/>
				<path class="st0" d="M282.1,904.5c0,0-38.7,90.2-59.2,128.5c-22.2,41.6-14.8,97.6,4.7,161.7
					C278.6,1131.9,291.7,940.5,282.1,904.5z"/>
			</g>
			<g>
				<path class="st0" d="M100,736.5c-4.4,38.7-0.9,69.1,0.7,81c6.1,44.5,20,74.8,38.6,115.2c10.7,23.3,26.9,55.2,50.3,91
					c0,0,6.3-82-14.6-178.3c-20.9-96.3-46.8-215-4.9-273.4c-8.5,9.6-19.7,23.7-30.6,42.2C133.2,625,107.5,670,100,736.5z"/>
				<path class="st0" d="M333.8,725.3c0,0-62.8,73.5-93.2,103.4c-33,32.5-42.1,88.2-41.9,155.6C265.2,940.9,332.6,762.8,333.8,725.3
					z"/>
			</g>
			<g>
				<path class="st0" d="M211.6,506.1c-15.8,35.2-21.6,65.2-23.7,77.1c-7.6,44.2-3.5,77.7,2,122.2c3.1,25.7,8.9,61.4,20.4,103.2
					c0,0,30.6-75.6,39.7-173.9c9.1-98.3,20.3-219.5,77.5-260.8c-10.9,6.3-25.8,15.8-41.7,29.7C276.7,411.6,238.8,445.6,211.6,506.1z
					"/>
				<path class="st0" d="M436.7,574.3c0,0-81.6,48.5-119.5,66.6c-41.1,19.6-66.4,69.5-86.5,133.4
					C306.9,755.6,424.3,609.4,436.7,574.3z"/>
			</g>
			<path class="st0" d="M380.2,327c-25.5,28.1-39.9,54.6-45.4,65.2c-20.3,39.4-26.4,72.5-34.5,116.6c-4.7,25.5-9.8,61.2-11.4,104.7
				c0,0,51.6-61.5,89.5-151.8c37.9-90.3,84.6-201.6,151.2-221.6c-12.2,2.3-29.2,6.4-48.4,14.3C470,259,424,278.7,380.2,327z"/>
			<path class="st0" d="M573.5,466.9c0,0-91.9,18.8-133.2,23.3c-44.8,4.9-83.7,43.7-121.8,97.7C396.3,595.5,551.2,496.1,573.5,466.9
				z"/>
			<path class="st0" d="M591.5,219.2c-32.4,18.6-53.7,39.2-62,47.6c-30.7,31-46,60.6-66.3,100c-11.8,22.8-26.9,55.2-40.9,96.1
				c0,0,66.8-42,128.8-115.8c62-73.8,138.4-164.8,207.6-162.5c-12.3-1.7-29.6-3.3-50.2-2C696.7,183.3,647.1,187.2,591.5,219.2z"/>
			<path class="st0" d="M735.6,414.7c0,0-92.9-11.7-133.6-20.6c-44.1-9.7-92.3,14.8-144.1,53.9C529.9,480.2,706,435.3,735.6,414.7z"
				/>
			<path class="st0" d="M733,216.5c-39.7,22.9-64.4,48.3-90.6,75.7c-17.4,18.2-40.7,44.7-65.2,79.7c0,0,75.3-20,154.7-71.9
				c79.4-51.9,153.2-132.4,250.3-127.4c7.3,0.4-28.1-6-76.6-3.3c-22.6,1.3-50.7,3-86.5,12.5C802,186.4,769.9,195.1,733,216.5z"/>
		</g>
	</g>
</g>
</svg>
